PathFileType  4	(X/Y/Z) W:\OA_GaitRetraining\OpenSimAllSubjects\Subject_114\Gait\Week1\Files_W_HJCs\
DataRate	CameraRate	NumFrames	NumMarkers	Units	OrigDataRate	OrigDataStartFrame	OrigNumFrames
  100.0		  100.0		    5		     57		 mm	  100.0	      116	    460
Frame#	Time	r_knee			r_shank(antsup)			r_ankle			r_calc			r_5meta			r_toe			L_knee			L_shank(ant_sup)			L_ankle			L_calc			L_5meta			L_toe			r_mknee			r_mankle			L_mknee			L_mankle			r_sh2			r_sh3			r_sh4			L_sh2			L_sh3			r_thigh1			r_thigh2			r_thigh3			r_thigh4			r_thigh5			L_thigh1			L_thigh2			L_thigh3			L_thigh4			r.ASIS			r.PSIS			L.ASIS			L.PSIS			C7			R_Shoulder			L_Shoulder			R_Sternum			L_Sternum			R_HJC			L_HJC			R_HJC_reg			L_HJC_reg			midPSIS			midASIS			midHJC			midPelvis			R_KJC			L_KJC			R_AJC			L_AJC			R_AJC_proj			R_5meta_proj			R_toe_proj			L_AJC_proj			L_5meta_proj			L_toe_proj			
		X1	Y1	Z1	X2	Y2	Z2	X3	Y3	Z3	X4	Y4	Z4	X5	Y5	Z5	X6	Y6	Z6	X7	Y7	Z7	X8	Y8	Z8	X9	Y9	Z9	X10	Y10	Z10	X11	Y11	Z11	X12	Y12	Z12	X13	Y13	Z13	X14	Y14	Z14	X15	Y15	Z15	X16	Y16	Z16	X17	Y17	Z17	X18	Y18	Z18	X19	Y19	Z19	X20	Y20	Z20	X21	Y21	Z21	X22	Y22	Z22	X23	Y23	Z23	X24	Y24	Z24	X25	Y25	Z25	X26	Y26	Z26	X27	Y27	Z27	X28	Y28	Z28	X29	Y29	Z29	X30	Y30	Z30	X31	Y31	Z31	X32	Y32	Z32	X33	Y33	Z33	X34	Y34	Z34	X35	Y35	Z35	X36	Y36	Z36	X37	Y37	Z37	X38	Y38	Z38	X39	Y39	Z39	X40	Y40	Z40	X41	Y41	Z41	X42	Y42	Z42	X43	Y43	Z43	X44	Y44	Z44	X45	Y45	Z45	X46	Y46	Z46	X47	Y47	Z47	X48	Y48	Z48	X49	Y49	Z49	X50	Y50	Z50	X51	Y51	Z51	X52	Y52	Z52	X53	Y53	Z53	X54	Y54	Z54	X55	Y55	Z55	X56	Y56	Z56	X57	Y57	Z57	

116	1.15000	1171.746	504.056	-322.400	1224.347	436.656	-326.580	1251.207	112.924	-325.410	1194.938	68.971	-372.451	1361.439	41.040	-301.801	1430.143	79.793	-362.501	982.286	488.423	-693.348	991.474	422.179	-666.971	810.442	117.642	-658.560	741.082	77.980	-599.530	894.212	42.011	-692.564	968.766	77.066	-641.565	1223.939	500.261	-462.858	1291.238	127.854	-414.622	992.541	473.301	-541.836	840.234	123.570	-563.429	1241.228	327.800	-314.572	1143.903	423.421	-315.597	1160.756	309.193	-308.710	912.111	455.919	-700.212	878.944	339.084	-708.107	1139.871	782.794	-295.339	1180.228	690.554	-302.199	1138.391	633.148	-291.566	1035.797	737.810	-294.414	1077.314	636.283	-304.412	1107.946	711.661	-707.131	1088.066	586.589	-680.680	1016.558	729.688	-753.763	977.992	604.445	-720.768	1160.187	955.202	-347.477	914.257	1022.366	-464.585	1162.991	949.253	-691.024	912.537	1026.225	-552.416	964.945	1400.518	-519.789	1072.366	1407.851	-408.992	1063.494	1385.902	-648.981	1118.322	1329.918	-506.249	1116.926	1332.776	-553.455	1049.718	866.567	-426.551	1043.559	847.740	-610.830	1066.107	854.219	-400.855	1061.671	864.172	-627.376	913.397	1024.296	-508.501	1161.589	952.227	-519.250	1046.639	857.153	-518.690	1037.493	988.262	-513.875	1197.842	502.158	-392.629	987.413	480.862	-617.592	1271.222	120.389	-370.016	825.338	120.606	-610.994	1271.222	0.000	-370.016	1361.439	0.000	-301.801	1430.143	0.000	-362.501	825.338	0.000	-610.994	894.212	0.000	-692.564	968.766	0.000	-641.565
117	1.16000	1171.676	503.996	-322.240	1224.271	436.535	-326.476	1251.187	112.822	-325.294	1194.905	68.949	-372.467	1361.397	40.801	-301.953	1430.040	79.598	-362.653	982.129	488.485	-693.374	991.403	422.205	-666.662	810.410	117.625	-658.599	741.032	77.869	-599.580	894.142	42.145	-692.659	968.734	77.034	-641.565	1223.880	500.184	-462.750	1291.205	127.881	-414.547	992.290	472.941	-541.919	840.045	123.456	-563.488	1241.154	327.774	-314.515	1143.852	423.386	-315.571	1160.717	309.159	-308.609	911.873	456.017	-700.102	878.943	339.041	-707.999	1139.895	782.740	-295.187	1180.263	690.475	-302.100	1138.418	633.153	-291.396	1035.826	737.643	-294.336	1077.346	636.341	-304.214	1107.762	711.505	-706.998	1087.969	586.608	-680.513	1016.314	729.745	-753.558	977.700	604.553	-720.497	1160.442	955.257	-347.318	914.347	1022.392	-464.403	1162.834	949.139	-690.946	912.561	1026.317	-552.230	964.986	1400.604	-519.778	1072.546	1407.872	-408.952	1063.518	1385.858	-648.937	1118.322	1329.918	-506.249	1117.043	1332.816	-553.413	1049.802	866.622	-426.346	1043.491	847.702	-610.611	1066.286	854.023	-400.717	1061.679	864.148	-627.280	913.454	1024.355	-508.317	1161.638	952.198	-519.132	1046.646	857.162	-518.479	1037.546	988.276	-513.724	1197.778	502.090	-392.495	987.209	480.713	-617.647	1271.196	120.351	-369.920	825.228	120.540	-611.043	1271.196	0.000	-369.920	1361.397	0.000	-301.953	1430.040	0.000	-362.653	825.228	0.000	-611.043	894.142	0.000	-692.659	968.734	0.000	-641.565
118	1.17000	1171.677	504.015	-322.158	1224.173	436.610	-326.286	1251.176	112.789	-325.354	1194.927	68.840	-372.483	1361.381	40.890	-301.763	1430.106	79.592	-362.542	982.017	488.521	-693.145	991.301	422.248	-666.700	810.305	117.521	-658.611	741.014	77.825	-599.625	894.189	42.125	-692.542	968.725	77.098	-641.549	1223.871	500.235	-462.587	1291.171	127.854	-414.460	992.029	473.079	-541.590	840.082	123.369	-563.488	1241.142	327.773	-314.439	1143.800	423.433	-315.454	1160.682	309.054	-308.490	911.743	455.915	-699.958	878.815	339.093	-707.824	1139.873	782.701	-295.024	1180.233	690.469	-301.928	1138.365	633.144	-291.283	1035.861	738.069	-293.685	1077.373	636.326	-304.071	1107.488	711.407	-706.872	1087.688	586.545	-680.316	1016.302	729.784	-753.448	977.365	604.648	-720.369	1160.547	955.270	-347.207	914.358	1022.537	-464.148	1162.887	949.069	-690.802	912.691	1026.350	-552.051	965.110	1400.632	-519.741	1072.834	1407.927	-408.922	1063.562	1385.823	-648.858	1118.322	1329.918	-506.249	1117.112	1332.643	-553.674	1049.847	866.670	-426.146	1043.485	847.705	-610.405	1066.109	854.254	-400.595	1061.811	864.080	-627.157	913.524	1024.443	-508.099	1161.717	952.169	-519.005	1046.666	857.188	-518.275	1037.621	988.306	-513.552	1197.774	502.125	-392.372	987.023	480.800	-617.367	1271.174	120.322	-369.907	825.194	120.445	-611.049	1271.174	0.000	-369.907	1361.381	0.000	-301.763	1430.106	0.000	-362.542	825.194	0.000	-611.049	894.189	0.000	-692.542	968.725	0.000	-641.549
119	1.18000	1171.662	503.992	-321.999	1224.143	436.602	-326.168	1251.151	112.771	-325.296	1194.946	68.934	-372.532	1361.454	41.038	-301.864	1430.109	79.861	-362.503	981.874	488.494	-692.934	991.242	422.210	-666.719	810.281	117.578	-658.581	740.950	77.595	-599.545	894.132	42.242	-692.577	968.691	77.205	-641.458	1223.726	500.192	-462.417	1291.125	127.849	-414.444	991.906	473.392	-541.388	840.009	123.369	-563.346	1241.074	327.802	-314.334	1143.713	423.318	-315.367	1160.608	309.180	-308.378	911.582	455.946	-699.880	878.636	339.069	-707.792	1139.847	782.711	-294.936	1180.179	690.411	-301.819	1138.276	633.198	-291.197	1035.835	738.283	-293.341	1077.321	636.351	-303.887	1107.490	711.541	-706.539	1087.539	586.518	-680.167	1016.116	729.702	-753.354	977.296	604.522	-720.200	1160.715	955.278	-347.079	914.419	1022.601	-463.962	1162.799	948.980	-690.719	912.813	1026.345	-551.869	965.390	1400.566	-519.505	1072.999	1407.921	-408.801	1063.745	1385.819	-648.769	1118.322	1329.918	-506.249	1117.169	1332.608	-553.613	1049.923	866.690	-425.967	1043.456	847.665	-610.215	1066.031	854.332	-400.463	1061.890	863.983	-627.064	913.616	1024.473	-507.916	1161.757	952.129	-518.899	1046.690	857.178	-518.091	1037.686	988.301	-513.408	1197.694	502.092	-392.208	986.890	480.943	-617.161	1271.138	120.310	-369.870	825.145	120.473	-610.964	1271.138	0.000	-369.870	1361.454	0.000	-301.864	1430.109	0.000	-362.503	825.145	0.000	-610.964	894.132	0.000	-692.577	968.691	0.000	-641.458
120	1.19000	1171.547	503.898	-321.872	1224.086	436.451	-326.206	1251.153	112.685	-325.319	1194.928	68.791	-372.398	1361.410	40.897	-301.882	1430.030	79.885	-362.495	981.675	488.528	-692.830	991.157	422.205	-666.643	810.065	117.519	-658.532	740.866	77.361	-599.594	894.166	42.292	-692.560	968.632	77.274	-641.429	1223.616	500.220	-462.303	1291.083	127.803	-414.410	991.711	473.183	-541.356	839.883	123.254	-563.473	1241.009	327.681	-314.283	1143.690	423.236	-315.283	1160.511	309.124	-308.311	911.432	455.816	-699.848	878.573	338.939	-707.631	1139.890	782.764	-294.846	1180.130	690.485	-301.626	1138.207	633.203	-291.011	1035.807	738.116	-293.455	1077.217	636.292	-303.721	1107.442	711.547	-706.408	1087.370	586.478	-680.020	1016.049	729.519	-753.076	977.072	604.440	-720.057	1160.783	955.274	-346.950	914.520	1022.767	-463.703	1162.799	948.925	-690.536	912.894	1026.304	-551.663	965.513	1400.542	-519.409	1073.167	1407.893	-408.694	1063.690	1385.753	-648.737	1118.322	1329.918	-506.249	1117.379	1332.318	-553.886	1049.965	866.725	-425.744	1043.437	847.655	-609.986	1065.931	854.777	-400.061	1061.744	863.887	-626.649	913.707	1024.535	-507.683	1161.791	952.100	-518.743	1046.701	857.190	-517.865	1037.749	988.318	-513.213	1197.581	502.059	-392.088	986.693	480.856	-617.093	1271.118	120.244	-369.864	824.974	120.386	-611.002	1271.118	0.000	-369.864	1361.410	0.000	-301.882	1430.030	0.000	-362.495	824.974	0.000	-611.002	894.166	0.000	-692.560	968.632	0.000	-641.429
